<?xml version="1.0" encoding="UTF-8" standalone="no"?>
<svg
   xmlns:dc="http://purl.org/dc/elements/1.1/"
   xmlns:cc="http://creativecommons.org/ns#"
   xmlns:rdf="http://www.w3.org/1999/02/22-rdf-syntax-ns#"
   xmlns:svg="http://www.w3.org/2000/svg"
   xmlns="http://www.w3.org/2000/svg"
   viewBox="0 0 1875.625 102.5"

   xml:space="preserve"
   version="1.1"><metadata
     id="metadata8"><rdf:RDF><cc:Work
         rdf:about=""><dc:format>image/svg+xml</dc:format><dc:type
           rdf:resource="http://purl.org/dc/dcmitype/StillImage" /><dc:title></dc:title></cc:Work></rdf:RDF></metadata><defs
     id="defs6"><clipPath
       id="clipPath16"
       clipPathUnits="userSpaceOnUse"><path
         id="path18"
         d="m 0,82 1500.5,0 0,-82 L 0,0 0,82 Z" /></clipPath><clipPath
       id="clipPath40"
       clipPathUnits="userSpaceOnUse"><path
         id="path42"
         d="m 0,82 1500.5,0 0,-82 L 0,0 0,82 Z" /></clipPath><clipPath
       id="clipPath56"
       clipPathUnits="userSpaceOnUse"><path
         id="path58"
         d="m 0,82 1500.5,0 0,-82 L 0,0 0,82 Z" /></clipPath><clipPath
       id="clipPath72"
       clipPathUnits="userSpaceOnUse"><path
         id="path74"
         d="m 0,82 1500.5,0 0,-82 L 0,0 0,82 Z" /></clipPath><clipPath
       id="clipPath88"
       clipPathUnits="userSpaceOnUse"><path
         id="path90"
         d="m 0,82 1500.5,0 0,-82 L 0,0 0,82 Z" /></clipPath><clipPath
       id="clipPath104"
       clipPathUnits="userSpaceOnUse"><path
         id="path106"
         d="m 0,82 1500.5,0 0,-82 L 0,0 0,82 Z" /></clipPath><clipPath
       id="clipPath120"
       clipPathUnits="userSpaceOnUse"><path
         id="path122"
         d="m 0,82 1500.5,0 0,-82 L 0,0 0,82 Z" /></clipPath><clipPath
       id="clipPath136"
       clipPathUnits="userSpaceOnUse"><path
         id="path138"
         d="m 0,82 1500.5,0 0,-82 L 0,0 0,82 Z" /></clipPath><clipPath
       id="clipPath152"
       clipPathUnits="userSpaceOnUse"><path
         id="path154"
         d="m 0,82 1500.5,0 0,-82 L 0,0 0,82 Z" /></clipPath><clipPath
       id="clipPath168"
       clipPathUnits="userSpaceOnUse"><path
         id="path170"
         d="m 0,82 1500.5,0 0,-82 L 0,0 0,82 Z" /></clipPath><clipPath
       id="clipPath184"
       clipPathUnits="userSpaceOnUse"><path
         id="path186"
         d="m 0,82 1500.5,0 0,-82 L 0,0 0,82 Z" /></clipPath><clipPath
       id="clipPath200"
       clipPathUnits="userSpaceOnUse"><path
         id="path202"
         d="m 0,82 1500.5,0 0,-82 L 0,0 0,82 Z" /></clipPath><clipPath
       id="clipPath216"
       clipPathUnits="userSpaceOnUse"><path
         id="path218"
         d="m 0,82 1500.5,0 0,-82 L 0,0 0,82 Z" /></clipPath><clipPath
       id="clipPath232"
       clipPathUnits="userSpaceOnUse"><path
         id="path234"
         d="m 0,82 1500.5,0 0,-82 L 0,0 0,82 Z" /></clipPath><clipPath
       id="clipPath248"
       clipPathUnits="userSpaceOnUse"><path
         id="path250"
         d="m 0,82 1500.5,0 0,-82 L 0,0 0,82 Z" /></clipPath><clipPath
       id="clipPath264"
       clipPathUnits="userSpaceOnUse"><path
         id="path266"
         d="m 0,82 1500.5,0 0,-82 L 0,0 0,82 Z" /></clipPath><clipPath
       id="clipPath280"
       clipPathUnits="userSpaceOnUse"><path
         id="path282"
         d="m 0,82 1500.5,0 0,-82 L 0,0 0,82 Z" /></clipPath><clipPath
       id="clipPath296"
       clipPathUnits="userSpaceOnUse"><path
         id="path298"
         d="m 0,82 1500.5,0 0,-82 L 0,0 0,82 Z" /></clipPath><clipPath
       id="clipPath312"
       clipPathUnits="userSpaceOnUse"><path
         id="path314"
         d="m 0,82 1500.5,0 0,-82 L 0,0 0,82 Z" /></clipPath><clipPath
       id="clipPath328"
       clipPathUnits="userSpaceOnUse"><path
         id="path330"
         d="m 0,82 1500.5,0 0,-82 L 0,0 0,82 Z" /></clipPath><clipPath
       id="clipPath352"
       clipPathUnits="userSpaceOnUse"><path
         id="path354"
         d="m 0,82 1500.5,0 0,-82 L 0,0 0,82 Z" /></clipPath><clipPath
       id="clipPath368"
       clipPathUnits="userSpaceOnUse"><path
         id="path370"
         d="m 0,82 1500.5,0 0,-82 L 0,0 0,82 Z" /></clipPath></defs><g
     transform="matrix(1.25,0,0,-1.25,0,102.5)"
     id="g10"><g
       id="g12"><g
         clip-path="url(#clipPath16)"
         id="g14"><g
           transform="translate(3.7525,78.2261)"
           id="g20"><path
             id="path22"
             style="fill:none;stroke:#e8c453;stroke-width:5;stroke-linecap:round;stroke-linejoin:round;stroke-miterlimit:10;stroke-dasharray:none;stroke-opacity:1"
             d="m 0,0 55.97,0 0,-49.753 -12.439,0 0,12.439 -24.877,0 0,13.088 -12.437,0 0,-50.409 55.974,0" /></g><g
           transform="translate(3.7525,65.7881)"
           id="g24"><path
             id="path26"
             style="fill:none;stroke:#e8c453;stroke-width:5;stroke-linecap:round;stroke-linejoin:round;stroke-miterlimit:10;stroke-dasharray:none;stroke-opacity:1"
             d="m 0,0 43.531,0 0,-12.438 -12.438,0 0,-24.877 -12.439,0 0,-12.438 43.537,0" /></g><g
           transform="translate(128.1353,78.2261)"
           id="g28"><path
             id="path30"
             style="fill:none;stroke:#e8c453;stroke-width:5;stroke-linecap:round;stroke-linejoin:round;stroke-miterlimit:10;stroke-dasharray:none;stroke-opacity:1"
             d="m 0,0 -55.97,0 0,-49.753 12.433,0 0,12.439 24.877,0 0,13.088 12.443,0 0,-50.409 -55.974,0" /></g></g></g><g
       transform="translate(128.1353,65.7881)"
       id="g32"><path
         id="path34"
         style="fill:none;stroke:#e8c453;stroke-width:5;stroke-linecap:round;stroke-linejoin:round;stroke-miterlimit:10;stroke-dasharray:none;stroke-opacity:1"
         d="m 0,0 -43.537,0 0,-12.438 12.444,0 0,-24.877 12.433,0 0,-12.438 -43.531,0" /></g><g
       id="g36"><g
         clip-path="url(#clipPath40)"
         id="g38"><g
           transform="translate(252.523,78.2261)"
           id="g44"><path
             id="path46"
             style="fill:none;stroke:#e8c453;stroke-width:5;stroke-linecap:round;stroke-linejoin:round;stroke-miterlimit:10;stroke-dasharray:none;stroke-opacity:1"
             d="m 0,0 -55.975,0 0,-49.753 12.439,0 0,12.439 24.876,0 0,13.088 12.438,0 0,-50.409 -55.968,0" /></g></g></g><g
       transform="translate(252.523,65.7881)"
       id="g48"><path
         id="path50"
         style="fill:none;stroke:#e8c453;stroke-width:5;stroke-linecap:round;stroke-linejoin:round;stroke-miterlimit:10;stroke-dasharray:none;stroke-opacity:1"
         d="m 0,0 -43.536,0 0,-12.438 12.437,0 0,-24.877 12.439,0 0,-12.438 -43.53,0" /></g><g
       id="g52"><g
         clip-path="url(#clipPath56)"
         id="g54"><g
           transform="translate(128.1353,78.2261)"
           id="g60"><path
             id="path62"
             style="fill:none;stroke:#e8c453;stroke-width:5;stroke-linecap:round;stroke-linejoin:round;stroke-miterlimit:10;stroke-dasharray:none;stroke-opacity:1"
             d="m 0,0 55.975,0 0,-49.753 -12.439,0 0,12.439 -24.876,0 0,13.088 -12.438,0 0,-50.409 55.975,0" /></g></g></g><g
       transform="translate(128.1353,65.7881)"
       id="g64"><path
         id="path66"
         style="fill:none;stroke:#e8c453;stroke-width:5;stroke-linecap:round;stroke-linejoin:round;stroke-miterlimit:10;stroke-dasharray:none;stroke-opacity:1"
         d="m 0,0 43.536,0 0,-12.438 -12.437,0 0,-24.877 -12.439,0 0,-12.438 43.537,0" /></g><g
       id="g68"><g
         clip-path="url(#clipPath72)"
         id="g70"><g
           transform="translate(501.2935,78.2261)"
           id="g76"><path
             id="path78"
             style="fill:none;stroke:#e8c453;stroke-width:5;stroke-linecap:round;stroke-linejoin:round;stroke-miterlimit:10;stroke-dasharray:none;stroke-opacity:1"
             d="m 0,0 -55.969,0 0,-49.753 12.439,0 0,12.439 24.876,0 0,13.088 12.438,0 0,-50.409 -55.975,0" /></g></g></g><g
       transform="translate(501.2935,65.7881)"
       id="g80"><path
         id="path82"
         style="fill:none;stroke:#e8c453;stroke-width:5;stroke-linecap:round;stroke-linejoin:round;stroke-miterlimit:10;stroke-dasharray:none;stroke-opacity:1"
         d="m 0,0 -43.53,0 0,-12.438 12.437,0 0,-24.877 12.439,0 0,-12.438 -43.537,0" /></g><g
       id="g84"><g
         clip-path="url(#clipPath88)"
         id="g86"><g
           transform="translate(376.9117,78.2261)"
           id="g92"><path
             id="path94"
             style="fill:none;stroke:#e8c453;stroke-width:5;stroke-linecap:round;stroke-linejoin:round;stroke-miterlimit:10;stroke-dasharray:none;stroke-opacity:1"
             d="m 0,0 55.969,0 0,-49.753 -12.433,0 0,12.439 -24.876,0 0,13.088 -12.444,0 0,-50.409 55.974,0" /></g></g></g><g
       transform="translate(376.9117,65.7881)"
       id="g96"><path
         id="path98"
         style="fill:none;stroke:#e8c453;stroke-width:5;stroke-linecap:round;stroke-linejoin:round;stroke-miterlimit:10;stroke-dasharray:none;stroke-opacity:1"
         d="m 0,0 43.536,0 0,-12.438 -12.444,0 0,-24.877 -12.432,0 0,-12.438 43.53,0" /></g><g
       id="g100"><g
         clip-path="url(#clipPath104)"
         id="g102"><g
           transform="translate(252.523,78.2261)"
           id="g108"><path
             id="path110"
             style="fill:none;stroke:#e8c453;stroke-width:5;stroke-linecap:round;stroke-linejoin:round;stroke-miterlimit:10;stroke-dasharray:none;stroke-opacity:1"
             d="m 0,0 55.976,0 0,-49.753 -12.439,0 0,12.439 -24.877,0 0,13.088 -12.437,0 0,-50.409 55.968,0" /></g></g></g><g
       transform="translate(252.523,65.7881)"
       id="g112"><path
         id="path114"
         style="fill:none;stroke:#e8c453;stroke-width:5;stroke-linecap:round;stroke-linejoin:round;stroke-miterlimit:10;stroke-dasharray:none;stroke-opacity:1"
         d="m 0,0 43.537,0 0,-12.438 -12.438,0 0,-24.877 -12.439,0 0,-12.438 43.531,0" /></g><g
       id="g116"><g
         clip-path="url(#clipPath120)"
         id="g118"><g
           transform="translate(376.9117,78.2261)"
           id="g124"><path
             id="path126"
             style="fill:none;stroke:#e8c453;stroke-width:5;stroke-linecap:round;stroke-linejoin:round;stroke-miterlimit:10;stroke-dasharray:none;stroke-opacity:1"
             d="m 0,0 -55.976,0 0,-49.753 12.439,0 0,12.439 24.876,0 0,13.088 12.438,0 0,-50.409 -55.974,0" /></g></g></g><g
       transform="translate(376.9117,65.7881)"
       id="g128"><path
         id="path130"
         style="fill:none;stroke:#e8c453;stroke-width:5;stroke-linecap:round;stroke-linejoin:round;stroke-miterlimit:10;stroke-dasharray:none;stroke-opacity:1"
         d="m 0,0 -43.537,0 0,-12.438 12.438,0 0,-24.877 12.438,0 0,-12.438 -43.536,0" /></g><g
       id="g132"><g
         clip-path="url(#clipPath136)"
         id="g134"><g
           transform="translate(501.2935,78.2261)"
           id="g140"><path
             id="path142"
             style="fill:none;stroke:#e8c453;stroke-width:5;stroke-linecap:round;stroke-linejoin:round;stroke-miterlimit:10;stroke-dasharray:none;stroke-opacity:1"
             d="m 0,0 55.97,0 0,-49.753 -12.439,0 0,12.439 -24.877,0 0,13.088 -12.437,0 0,-50.409 55.974,0" /></g></g></g><g
       transform="translate(501.2935,65.7881)"
       id="g144"><path
         id="path146"
         style="fill:none;stroke:#e8c453;stroke-width:5;stroke-linecap:round;stroke-linejoin:round;stroke-miterlimit:10;stroke-dasharray:none;stroke-opacity:1"
         d="m 0,0 43.531,0 0,-12.438 -12.438,0 0,-24.877 -12.439,0 0,-12.438 43.537,0" /></g><g
       id="g148"><g
         clip-path="url(#clipPath152)"
         id="g150"><g
           transform="translate(625.6763,78.2261)"
           id="g156"><path
             id="path158"
             style="fill:none;stroke:#e8c453;stroke-width:5;stroke-linecap:round;stroke-linejoin:round;stroke-miterlimit:10;stroke-dasharray:none;stroke-opacity:1"
             d="m 0,0 -55.97,0 0,-49.753 12.433,0 0,12.439 24.877,0 0,13.088 12.443,0 0,-50.409 -55.974,0" /></g></g></g><g
       transform="translate(625.6763,65.7881)"
       id="g160"><path
         id="path162"
         style="fill:none;stroke:#e8c453;stroke-width:5;stroke-linecap:round;stroke-linejoin:round;stroke-miterlimit:10;stroke-dasharray:none;stroke-opacity:1"
         d="m 0,0 -43.537,0 0,-12.438 12.444,0 0,-24.877 12.433,0 0,-12.438 -43.531,0" /></g><g
       id="g164"><g
         clip-path="url(#clipPath168)"
         id="g166"><g
           transform="translate(750.064,78.2261)"
           id="g172"><path
             id="path174"
             style="fill:none;stroke:#e8c453;stroke-width:5;stroke-linecap:round;stroke-linejoin:round;stroke-miterlimit:10;stroke-dasharray:none;stroke-opacity:1"
             d="m 0,0 -55.975,0 0,-49.753 12.439,0 0,12.439 24.876,0 0,13.088 12.438,0 0,-50.409 -55.968,0" /></g></g></g><g
       transform="translate(750.064,65.7881)"
       id="g176"><path
         id="path178"
         style="fill:none;stroke:#e8c453;stroke-width:5;stroke-linecap:round;stroke-linejoin:round;stroke-miterlimit:10;stroke-dasharray:none;stroke-opacity:1"
         d="m 0,0 -43.536,0 0,-12.438 12.437,0 0,-24.877 12.439,0 0,-12.438 -43.53,0" /></g><g
       id="g180"><g
         clip-path="url(#clipPath184)"
         id="g182"><g
           transform="translate(625.6763,78.2261)"
           id="g188"><path
             id="path190"
             style="fill:none;stroke:#e8c453;stroke-width:5;stroke-linecap:round;stroke-linejoin:round;stroke-miterlimit:10;stroke-dasharray:none;stroke-opacity:1"
             d="m 0,0 55.975,0 0,-49.753 -12.439,0 0,12.439 -24.876,0 0,13.088 -12.438,0 0,-50.409 55.975,0" /></g></g></g><g
       transform="translate(625.6763,65.7881)"
       id="g192"><path
         id="path194"
         style="fill:none;stroke:#e8c453;stroke-width:5;stroke-linecap:round;stroke-linejoin:round;stroke-miterlimit:10;stroke-dasharray:none;stroke-opacity:1"
         d="m 0,0 43.536,0 0,-12.438 -12.437,0 0,-24.877 -12.439,0 0,-12.438 43.537,0" /></g><g
       id="g196"><g
         clip-path="url(#clipPath200)"
         id="g198"><g
           transform="translate(998.8345,78.2261)"
           id="g204"><path
             id="path206"
             style="fill:none;stroke:#e8c453;stroke-width:5;stroke-linecap:round;stroke-linejoin:round;stroke-miterlimit:10;stroke-dasharray:none;stroke-opacity:1"
             d="m 0,0 -55.969,0 0,-49.753 12.439,0 0,12.439 24.876,0 0,13.088 12.438,0 0,-50.409 -55.975,0" /></g></g></g><g
       transform="translate(998.8345,65.7881)"
       id="g208"><path
         id="path210"
         style="fill:none;stroke:#e8c453;stroke-width:5;stroke-linecap:round;stroke-linejoin:round;stroke-miterlimit:10;stroke-dasharray:none;stroke-opacity:1"
         d="m 0,0 -43.53,0 0,-12.438 12.437,0 0,-24.877 12.439,0 0,-12.438 -43.537,0" /></g><g
       id="g212"><g
         clip-path="url(#clipPath216)"
         id="g214"><g
           transform="translate(874.4526,78.2261)"
           id="g220"><path
             id="path222"
             style="fill:none;stroke:#e8c453;stroke-width:5;stroke-linecap:round;stroke-linejoin:round;stroke-miterlimit:10;stroke-dasharray:none;stroke-opacity:1"
             d="m 0,0 55.969,0 0,-49.753 -12.433,0 0,12.439 -24.876,0 0,13.088 -12.444,0 0,-50.409 55.974,0" /></g></g></g><g
       transform="translate(874.4526,65.7881)"
       id="g224"><path
         id="path226"
         style="fill:none;stroke:#e8c453;stroke-width:5;stroke-linecap:round;stroke-linejoin:round;stroke-miterlimit:10;stroke-dasharray:none;stroke-opacity:1"
         d="m 0,0 43.536,0 0,-12.438 -12.444,0 0,-24.877 -12.432,0 0,-12.438 43.53,0" /></g><g
       id="g228"><g
         clip-path="url(#clipPath232)"
         id="g230"><g
           transform="translate(750.064,78.2261)"
           id="g236"><path
             id="path238"
             style="fill:none;stroke:#e8c453;stroke-width:5;stroke-linecap:round;stroke-linejoin:round;stroke-miterlimit:10;stroke-dasharray:none;stroke-opacity:1"
             d="m 0,0 55.976,0 0,-49.753 -12.439,0 0,12.439 -24.877,0 0,13.088 -12.437,0 0,-50.409 55.968,0" /></g></g></g><g
       transform="translate(750.064,65.7881)"
       id="g240"><path
         id="path242"
         style="fill:none;stroke:#e8c453;stroke-width:5;stroke-linecap:round;stroke-linejoin:round;stroke-miterlimit:10;stroke-dasharray:none;stroke-opacity:1"
         d="m 0,0 43.537,0 0,-12.438 -12.438,0 0,-24.877 -12.439,0 0,-12.438 43.531,0" /></g><g
       id="g244"><g
         clip-path="url(#clipPath248)"
         id="g246"><g
           transform="translate(874.4526,78.2261)"
           id="g252"><path
             id="path254"
             style="fill:none;stroke:#e8c453;stroke-width:5;stroke-linecap:round;stroke-linejoin:round;stroke-miterlimit:10;stroke-dasharray:none;stroke-opacity:1"
             d="m 0,0 -55.976,0 0,-49.753 12.439,0 0,12.439 24.876,0 0,13.088 12.438,0 0,-50.409 -55.974,0" /></g></g></g><g
       transform="translate(874.4526,65.7881)"
       id="g256"><path
         id="path258"
         style="fill:none;stroke:#e8c453;stroke-width:5;stroke-linecap:round;stroke-linejoin:round;stroke-miterlimit:10;stroke-dasharray:none;stroke-opacity:1"
         d="m 0,0 -43.537,0 0,-12.438 12.438,0 0,-24.877 12.438,0 0,-12.438 -43.536,0" /></g><g
       id="g260"><g
         clip-path="url(#clipPath264)"
         id="g262"><g
           transform="translate(998.8345,78.2261)"
           id="g268"><path
             id="path270"
             style="fill:none;stroke:#e8c453;stroke-width:5;stroke-linecap:round;stroke-linejoin:round;stroke-miterlimit:10;stroke-dasharray:none;stroke-opacity:1"
             d="m 0,0 55.97,0 0,-49.753 -12.439,0 0,12.439 -24.877,0 0,13.088 -12.437,0 0,-50.409 55.974,0" /></g></g></g><g
       transform="translate(998.8345,65.7881)"
       id="g272"><path
         id="path274"
         style="fill:none;stroke:#e8c453;stroke-width:5;stroke-linecap:round;stroke-linejoin:round;stroke-miterlimit:10;stroke-dasharray:none;stroke-opacity:1"
         d="m 0,0 43.531,0 0,-12.438 -12.438,0 0,-24.877 -12.439,0 0,-12.438 43.537,0" /></g><g
       id="g276"><g
         clip-path="url(#clipPath280)"
         id="g278"><g
           transform="translate(1123.2173,78.2261)"
           id="g284"><path
             id="path286"
             style="fill:none;stroke:#e8c453;stroke-width:5;stroke-linecap:round;stroke-linejoin:round;stroke-miterlimit:10;stroke-dasharray:none;stroke-opacity:1"
             d="m 0,0 -55.97,0 0,-49.753 12.433,0 0,12.439 24.877,0 0,13.088 12.443,0 0,-50.409 -55.974,0" /></g></g></g><g
       transform="translate(1123.2173,65.7881)"
       id="g288"><path
         id="path290"
         style="fill:none;stroke:#e8c453;stroke-width:5;stroke-linecap:round;stroke-linejoin:round;stroke-miterlimit:10;stroke-dasharray:none;stroke-opacity:1"
         d="m 0,0 -43.537,0 0,-12.438 12.444,0 0,-24.877 12.433,0 0,-12.438 -43.531,0" /></g><g
       id="g292"><g
         clip-path="url(#clipPath296)"
         id="g294"><g
           transform="translate(1247.605,78.2261)"
           id="g300"><path
             id="path302"
             style="fill:none;stroke:#e8c453;stroke-width:5;stroke-linecap:round;stroke-linejoin:round;stroke-miterlimit:10;stroke-dasharray:none;stroke-opacity:1"
             d="m 0,0 -55.975,0 0,-49.753 12.439,0 0,12.439 24.876,0 0,13.088 12.438,0 0,-50.409 -55.968,0" /></g></g></g><g
       transform="translate(1247.605,65.7881)"
       id="g304"><path
         id="path306"
         style="fill:none;stroke:#e8c453;stroke-width:5;stroke-linecap:round;stroke-linejoin:round;stroke-miterlimit:10;stroke-dasharray:none;stroke-opacity:1"
         d="m 0,0 -43.536,0 0,-12.438 12.437,0 0,-24.877 12.439,0 0,-12.438 -43.53,0" /></g><g
       id="g308"><g
         clip-path="url(#clipPath312)"
         id="g310"><g
           transform="translate(1123.2173,78.2261)"
           id="g316"><path
             id="path318"
             style="fill:none;stroke:#e8c453;stroke-width:5;stroke-linecap:round;stroke-linejoin:round;stroke-miterlimit:10;stroke-dasharray:none;stroke-opacity:1"
             d="m 0,0 55.975,0 0,-49.753 -12.439,0 0,12.439 -24.876,0 0,13.088 -12.438,0 0,-50.409 55.975,0" /></g></g></g><g
       transform="translate(1123.2173,65.7881)"
       id="g320"><path
         id="path322"
         style="fill:none;stroke:#e8c453;stroke-width:5;stroke-linecap:round;stroke-linejoin:round;stroke-miterlimit:10;stroke-dasharray:none;stroke-opacity:1"
         d="m 0,0 43.536,0 0,-12.438 -12.437,0 0,-24.877 -12.439,0 0,-12.438 43.537,0" /></g><g
       id="g324"><g
         clip-path="url(#clipPath328)"
         id="g326"><g
           transform="translate(1496.3755,78.2261)"
           id="g332"><path
             id="path334"
             style="fill:none;stroke:#e8c453;stroke-width:5;stroke-linecap:round;stroke-linejoin:round;stroke-miterlimit:10;stroke-dasharray:none;stroke-opacity:1"
             d="m 0,0 -55.969,0 0,-49.753 12.439,0 0,12.439 24.876,0 0,13.088 12.438,0 0,-50.409 -55.975,0" /></g><g
           transform="translate(1496.3755,65.7881)"
           id="g336"><path
             id="path338"
             style="fill:none;stroke:#e8c453;stroke-width:5;stroke-linecap:round;stroke-linejoin:round;stroke-miterlimit:10;stroke-dasharray:none;stroke-opacity:1"
             d="m 0,0 -43.53,0 0,-12.438 12.437,0 0,-24.877 12.439,0 0,-12.438 -43.537,0" /></g><g
           transform="translate(1371.9937,78.2261)"
           id="g340"><path
             id="path342"
             style="fill:none;stroke:#e8c453;stroke-width:5;stroke-linecap:round;stroke-linejoin:round;stroke-miterlimit:10;stroke-dasharray:none;stroke-opacity:1"
             d="m 0,0 55.969,0 0,-49.753 -12.433,0 0,12.439 -24.876,0 0,13.088 -12.444,0 0,-50.409 55.974,0" /></g></g></g><g
       transform="translate(1371.9937,65.7881)"
       id="g344"><path
         id="path346"
         style="fill:none;stroke:#e8c453;stroke-width:5;stroke-linecap:round;stroke-linejoin:round;stroke-miterlimit:10;stroke-dasharray:none;stroke-opacity:1"
         d="m 0,0 43.536,0 0,-12.438 -12.444,0 0,-24.877 -12.432,0 0,-12.438 43.53,0" /></g><g
       id="g348"><g
         clip-path="url(#clipPath352)"
         id="g350"><g
           transform="translate(1247.605,78.2261)"
           id="g356"><path
             id="path358"
             style="fill:none;stroke:#e8c453;stroke-width:5;stroke-linecap:round;stroke-linejoin:round;stroke-miterlimit:10;stroke-dasharray:none;stroke-opacity:1"
             d="m 0,0 55.976,0 0,-49.753 -12.439,0 0,12.439 -24.877,0 0,13.088 -12.437,0 0,-50.409 55.968,0" /></g></g></g><g
       transform="translate(1247.605,65.7881)"
       id="g360"><path
         id="path362"
         style="fill:none;stroke:#e8c453;stroke-width:5;stroke-linecap:round;stroke-linejoin:round;stroke-miterlimit:10;stroke-dasharray:none;stroke-opacity:1"
         d="m 0,0 43.537,0 0,-12.438 -12.438,0 0,-24.877 -12.439,0 0,-12.438 43.531,0" /></g><g
       id="g364"><g
         clip-path="url(#clipPath368)"
         id="g366"><g
           transform="translate(1371.9937,78.2261)"
           id="g372"><path
             id="path374"
             style="fill:none;stroke:#e8c453;stroke-width:5;stroke-linecap:round;stroke-linejoin:round;stroke-miterlimit:10;stroke-dasharray:none;stroke-opacity:1"
             d="m 0,0 -55.976,0 0,-49.753 12.439,0 0,12.439 24.876,0 0,13.088 12.438,0 0,-50.409 -55.974,0" /></g></g></g><g
       transform="translate(1371.9937,65.7881)"
       id="g376"><path
         id="path378"
         style="fill:none;stroke:#e8c453;stroke-width:5;stroke-linecap:round;stroke-linejoin:round;stroke-miterlimit:10;stroke-dasharray:none;stroke-opacity:1"
         d="m 0,0 -43.537,0 0,-12.438 12.438,0 0,-24.877 12.438,0 0,-12.438 -43.536,0" /></g></g></svg>